# File created by Blade
# Date/Time:  Wed Jan 21 15:55:51 2015
# Frame Rate: 120.000 fps
#------------------------------------------------------
:FULLY-SPECIFIED
:DEGREES
960
root 20.625430 21.951413 -12.325697 -147.194895 34.921005 -188.413632
Spine 57.957553 -17.461772 6.732230
Head -3.778904 18.836210 -29.191907
LeftShoulder 30.367251 -48.760194 -14.979488
LeftArm 27.439124 2.933219 -79.907664
LeftForeArm -68.887693 0.000000 -3.413530
LeftHand -6.705729 -0.000000 -9.712917
LeftHandThumb1 -26.253704 0.000000 33.147579
RightShoulder 16.030752 10.321407 -7.596583
RightArm 48.507641 17.442991 43.096650
RightForeArm 8.044373 -0.000000 8.619554
RightHand -15.168891 -0.000000 -3.354958
RightHandThumb1 -24.326973 -0.000000 -32.862282
LeftUpLeg -8.374826 52.251015 26.137564
LeftLeg -2.668054 -0.000000 0.000000
LeftFoot -10.403215 24.340335 -30.629910
LeftToeBase 31.895171 -0.000000 -0.000000
RightUpLeg -113.357883 -5.071767 -0.624213
RightLeg 100.160040 -0.000000 -0.000000
RightFoot -45.756713 -28.653885 24.272246
RightToeBase 19.799652 -0.000000 -0.000000
961
root 20.511406 22.109407 -12.294855 -146.569146 35.122530 -187.798488
Spine 57.877501 -17.117615 6.525842
Head -4.180824 18.962981 -29.589910
LeftShoulder 30.680145 -49.064828 -15.490428
LeftArm 26.925198 2.709073 -79.445439
LeftForeArm -68.695462 -0.000000 -3.205623
LeftHand -6.597782 -0.000000 -9.989613
LeftHandThumb1 -26.253704 0.000000 33.147579
RightShoulder 16.009528 10.523664 -7.859321
RightArm 48.451202 17.505868 42.864179
RightForeArm 7.909152 -0.000000 8.831770
RightHand -15.011054 -0.000000 -3.133467
RightHandThumb1 -24.326973 -0.000000 -32.862282
LeftUpLeg -8.581126 52.286599 26.105647
LeftLeg -2.822776 -0.000000 0.000000
LeftFoot -10.545336 24.658572 -30.702461
LeftToeBase 31.527092 -0.000000 -0.000000
RightUpLeg -113.198529 -4.852832 -0.268502
RightLeg 99.214322 -0.000000 -0.000000
RightFoot -45.215890 -28.593258 24.132147
RightToeBase 19.612241 -0.000000 -0.000000
962
root 20.396070 22.266035 -12.258853 -145.995287 35.338903 -187.226251
Spine 57.836767 -16.823749 6.087633
Head -4.579797 19.252422 -29.939336
LeftShoulder 30.122905 -48.504226 -15.114893
LeftArm 27.555900 2.388490 -78.856265
LeftForeArm -68.270513 -0.000000 -3.321968
LeftHand -6.328137 0.000000 -10.584927
LeftHandThumb1 -26.253704 0.000000 33.147579
RightShoulder 16.157752 10.509168 -8.064815
RightArm 48.605029 17.777073 42.721972
RightForeArm 7.688284 -0.000000 9.057599
RightHand -14.836623 -0.000000 -3.155309
RightHandThumb1 -24.326973 -0.000000 -32.862282
LeftUpLeg -8.793215 52.419272 26.028190
LeftLeg -2.972180 -0.000000 0.000000
LeftFoot -10.653964 24.924778 -30.878433
LeftToeBase 31.165128 -0.000000 -0.000000
RightUpLeg -113.022050 -4.642573 0.067966
RightLeg 98.245355 -0.000000 -0.000000
RightFoot -44.658692 -28.597062 23.931813
RightToeBase 20.288041 -0.000000 -0.000000
963
root 20.276519 22.420287 -12.220188 -145.450575 35.534656 -186.709331
Spine 57.764297 -16.493265 5.749292
Head -5.007293 19.324326 -30.370482
LeftShoulder 30.020052 -48.506541 -15.227725
LeftArm 27.464092 2.314190 -78.319481
LeftForeArm -68.213744 -0.000000 -3.269251
LeftHand -6.308207 -0.000000 -10.820438
LeftHandThumb1 -26.253704 0.000000 33.147579
RightShoulder 16.104006 10.697122 -8.319006
RightArm 48.736710 17.967802 42.817120
RightForeArm 7.196579 -0.000000 9.293655
RightHand -14.720070 -0.000000 -3.325965
RightHandThumb1 -24.326973 -0.000000 -32.862282
LeftUpLeg -9.085134 52.649201 25.843678
LeftLeg -3.119279 -0.000000 0.000000
LeftFoot -10.676320 25.075079 -30.948056
LeftToeBase 30.845389 -0.000000 -0.000000
RightUpLeg -112.880912 -4.479002 0.387635
RightLeg 97.321524 -0.000000 -0.000000
RightFoot -44.008264 -28.530115 23.718364
RightToeBase 20.010286 -0.000000 -0.000000
964
root 20.155175 22.572518 -12.179728 -144.911209 35.688238 -186.226701
Spine 57.588796 -16.157337 5.452496
Head -5.214593 19.371860 -30.638596
LeftShoulder 30.063460 -48.478309 -15.441088
LeftArm 27.265626 2.005547 -77.875894
LeftForeArm -67.640299 -0.000000 -3.190363
LeftHand -6.156254 -0.000000 -11.119129
LeftHandThumb1 -26.253704 0.000000 33.147579
RightShoulder 16.087118 10.900476 -8.449412
RightArm 48.752534 18.098843 42.744349
RightForeArm 6.536214 -0.000000 9.468815
RightHand -14.417802 0.000000 -3.526939
RightHandThumb1 -24.326973 -0.000000 -32.862282
LeftUpLeg -9.496503 52.978006 25.557485
LeftLeg -3.245017 -0.000000 0.000000
LeftFoot -10.678889 25.095861 -30.957555
LeftToeBase 30.682277 -0.000000 -0.000000
RightUpLeg -112.752612 -4.363275 0.696269
RightLeg 96.412671 -0.000000 -0.000000
RightFoot -43.342863 -28.509907 23.470700
RightToeBase 19.835433 -0.000000 -0.000000
965
root 20.031678 22.724329 -12.139233 -144.413886 35.831029 -185.788450
Spine 57.420880 -15.864411 5.115879
Head -5.435299 19.449871 -30.953066
LeftShoulder 30.058625 -48.531269 -15.686087
LeftArm 26.923200 1.842050 -77.366987
LeftForeArm -66.935461 -0.000000 -2.939324
LeftHand -5.979157 -0.000000 -11.500798
LeftHandThumb1 -26.253704 0.000000 33.147579
RightShoulder 16.149252 11.413953 -8.550579
RightArm 48.533896 18.059023 42.705043
RightForeArm 5.413718 0.000000 9.697666
RightHand -14.295435 -0.000000 -3.659132
RightHandThumb1 -24.326973 -0.000000 -32.862282
LeftUpLeg -9.963162 53.364641 25.197034
LeftLeg -3.350290 -0.000000 0.000000
LeftFoot -10.640336 25.064013 -30.908680
LeftToeBase 30.570511 -0.000000 -0.000000
RightUpLeg -112.596422 -4.272201 0.969438
RightLeg 95.451208 -0.000000 -0.000000
RightFoot -42.919389 -28.278373 23.544739
RightToeBase 20.018740 -0.000000 -0.000000
966
root 19.909698 22.874385 -12.093020 -143.906131 35.890811 -185.335331
Spine 57.203073 -15.591702 4.892559
Head -5.563290 19.429423 -31.230233
LeftShoulder 30.080814 -48.470296 -15.918611
LeftArm 26.711900 1.753664 -76.822783
LeftForeArm -66.189277 -0.000000 -2.809150
LeftHand -5.710374 -0.000000 -11.821582
LeftHandThumb1 -26.253704 0.000000 33.147579
RightShoulder 16.199267 12.036709 -8.614777
RightArm 48.178413 17.778964 42.415504
RightForeArm 4.153561 -0.000000 9.885521
RightHand -14.214394 0.000000 -3.694622
RightHandThumb1 -24.326973 -0.000000 -32.862282
LeftUpLeg -10.589276 53.809261 24.795591
LeftLeg -3.375006 -0.000000 0.000000
LeftFoot -10.593322 24.954497 -30.816614
LeftToeBase 30.358192 -0.000000 -0.000000
RightUpLeg -112.439230 -4.226063 1.298831
RightLeg 94.501044 -0.000000 -0.000000
RightFoot -42.449812 -28.177632 23.538348
RightToeBase 20.408268 -0.000000 -0.000000
967
root 19.787664 23.028436 -12.048263 -143.508097 35.883119 -184.918612
Spine 57.120462 -15.408546 4.686643
Head -5.779367 19.414701 -31.548323
LeftShoulder 30.038927 -48.430201 -16.096059
LeftArm 26.524350 1.986652 -76.137432
LeftForeArm -65.923311 0.000000 -2.590736
LeftHand -5.731566 0.000000 -11.846435
LeftHandThumb1 -26.253704 0.000000 33.147579
RightShoulder 16.199246 12.444196 -8.738199
RightArm 48.111932 17.653721 42.033165
RightForeArm 2.761201 -0.000000 10.018419
RightHand -14.226430 -0.000000 -3.479696
RightHandThumb1 -24.326973 -0.000000 -32.862282
LeftUpLeg -11.040791 53.977975 24.520169
LeftLeg -3.505679 -0.000000 0.000000
LeftFoot -10.547239 24.982951 -30.743360
LeftToeBase 30.283472 -0.000000 -0.000000
RightUpLeg -112.177443 -4.250046 1.631796
RightLeg 93.569117 -0.000000 -0.000000
RightFoot -41.966319 -27.995026 23.452752
RightToeBase 20.184844 -0.000000 -0.000000
